#!OML:ASF F:\VICON\USERDATA\INSTALL\rory3\rory3.ASF
:FULLY-SPECIFIED
:DEGREES
27
root -0.011760996671072 17.46171483531042 -5.593162758804532 4.691846639187508 1.846375104165483 0.411493938030701
lfemur -1.2626402897220679 -2.617610169033223 -27.137011153627434
ltibia 30.028482724894708
lfoot -9.455015054927546 -5.396855985544561
ltoes -15.336379076296092
rfemur -37.2561872775335 -0.15249863325349966 23.83169821018132
rtibia 99.82577994072071
rfoot 0.8053429982483526 0.12642644971682238
rtoes -4.586387602181798
lowerback 14.151331694831109 -0.657248393910311 -2.7244734273019207
upperback -0.09314424895601936 -0.6358347759715965 -0.0032842599327616018
thorax -8.162307028616402 0.05409940529882462 2.771231745618578
lowerneck -19.569393253429492 -3.8799247469993814 -2.2789372848311733
upperneck 13.79473778824286 -4.57366985659604 3.8176455919544017
head 7.210951933711487 -2.298796068075175 1.2292255132438852
lclavicle 3.072482726141636e-16 -4.306722120835128e-16
lhumerus -30.8990807586896 -15.940474721761023 95.777729070341
lradius 105.03627940178296
lwrist 33.405882855779076
lhand -25.812648994646164 3.2876349711817845
lfingers 7.125020000000001
lthumb 0.44424062585279467 32.94879317568594
rclavicle 3.0728743647688347e-16 -4.306498568830555e-16
rhumerus -52.68108575567362 7.341977815726509 -98.07861896942558
rradius 99.42559886767889
rwrist -19.781619597086614
rhand -18.67178529803803 37.30770602914654
rfingers 7.125020000000001
rthumb 7.511968086953108 7.341891232838716
28
root 0.0052051699507973115 17.69132536407049 -4.221307317213762 4.834855596797444 0.28512000994020864 0.2538570534512059
lfemur 2.568553853507895 -2.285113771757497 -26.759029492481755
ltibia 26.611323661038494
lfoot -3.02461065845592 -8.96987334672246
ltoes -16.394578479827018
rfemur -38.258741299765774 0.8137229063885023 24.63236164910074
rtibia 94.39545208635917
rfoot -1.235831409978346 0.1088869380443871
rtoes -7.747457705778629
lowerback 13.522846234142978 -0.7257372162506145 -2.5203345996357136
upperback -0.2334975009575851 -0.8751232425928543 0.27608435351066984
thorax -8.069680739113055 -0.030509743840197 2.9942027941731153
lowerneck -19.66114378979457 -3.587669686655589 -2.3530601577727817
upperneck 14.330630939863477 -4.2026825189925985 3.481826954417919
head 7.313977490960151 -2.145443488265898 1.173740009392037
lclavicle 3.072482726181645e-16 -4.3067221208122905e-16
lhumerus -31.57882519346889 -15.042760130830604 95.56269377583287
lradius 105.50179777524389
lwrist 33.3018644481129
lhand -25.07993631621135 2.8286000326723357
lfingers 7.125020000000001
lthumb 1.0318962608892512 32.37584370012197
rclavicle 3.0728743642983906e-16 -4.30649856909909e-16
rhumerus -54.63062955627003 7.356383243426373 -98.02501084227306
rradius 99.53173587924621
rwrist -19.842128567933646
rhand -18.722511167323805 37.381561750164856
rfingers 7.125020000000001
rthumb 7.478618048941219 7.444472860270233
29
root 0.02231091671433466 17.90139090517344 -3.2237677223976924 4.991484011377469 -1.0408281639550423 0.03599381373097699
lfemur 6.216849538670102 -2.0269956939513176 -26.58687357211225
ltibia 24.835371182707952
lfoot 3.0693954857093955 -11.302080823836906
ltoes -17.12729438304872
rfemur -37.95581375542159 1.6817443858588854 25.22797974810358
rtibia 87.87100791962168
rfoot -2.831098704334651 -0.9941632744093507
rtoes -10.753386468802912
lowerback 12.787963286447164 -0.6831829501606771 -2.4950162954186546
upperback -0.39924645389032704 -1.11887375947161 0.6006117497428847
thorax -8.0111394131057 -0.05069734056549979 3.0997310306416246
lowerneck -19.30656017425355 -3.2556713048517376 -2.4127121818245256
upperneck 14.883440037617557 -3.8528180866058905 3.1876821790197547
head 7.423390371606634 -2.0448450644685914 1.103869576721601
lclavicle 3.0724827261871156e-16 -4.306722120809168e-16
lhumerus -33.113991178443854 -14.811502047066805 95.55474842490418
lradius 106.55088777171008
lwrist 32.73423512924311
lhand -24.828191217274178 2.237699223462112
lfingers 7.125020000000001
lthumb 1.2949495203316688 31.875306244246776
rclavicle 3.072874365975465e-16 -4.306498568141796e-16
rhumerus -56.71993862424641 7.326676302908239 -97.75565403321117
rradius 99.62867705028444
rwrist -19.88265942611579
rhand -18.809394639400363 37.455665073076204
rfingers 7.125020000000001
rthumb 7.526883034826549 7.6958137202797845
30
root 0.03603128454365764 18.08548878545505 -1.8295354880814738 5.230708860543173 -1.9068213494533182 0.1529454956874048
lfemur 9.499273303157105 -2.1698849031667153 -26.731401446356966
ltibia 25.025540603523176
lfoot 7.585533921129071 -12.731256219290959
ltoes -16.66583120281967
rfemur -37.13470166779389 2.475087000207881 25.621293757590358
rtibia 80.76021066172358
rfoot -3.937603833161289 -2.8305169966866504
rtoes -13.063670986039307
lowerback 12.197987417100586 -0.7076426489771858 -2.4864634133319727
upperback -0.6606743188333337 -1.1255975389035318 0.9502356722205267
thorax -8.005461821115953 0.01010070467124291 3.2458466865208235
lowerneck -19.11354594203265 -3.080102036369276 -2.5642454059574518
upperneck 15.310905700770741 -3.627668586560273 2.8804360692271
head 7.519706355243259 -1.935016481806482 1.0376988216244576
lclavicle 3.0724827262258462e-16 -4.3067221207870597e-16
lhumerus -34.45453340084777 -15.169744619559829 95.94268255717863
lradius 108.13419113573654
lwrist 32.47318094554519
lhand -24.711161897778553 1.9755966800335394
lfingers 7.125020000000001
lthumb 1.4241384484354023 31.56562483255128
rclavicle 3.0728743664988457e-16 -4.306498567843044e-16
rhumerus -58.71348141609 7.147423781042628 -97.28135967245244
rradius 99.64344799920825
rwrist -19.889401589932877
rhand -18.659473183252206 37.81761339864866
rfingers 7.125020000000001
rthumb 7.5871493312110925 8.07400737268071
31
root 0.061694880190222734 18.245443251564215 -0.2333304514150889 5.358020869916261 -2.3615225019711885 0.9459968907333709
lfemur 12.0406768343587 -2.6762093474746735 -26.93319100914045
ltibia 27.478439642030217
lfoot 11.588991862134502 -13.726447351043355
ltoes -16.571517106956566
rfemur -36.400444674250956 2.799712934338774 25.503971116364717
rtibia 73.28319157450935
rfoot -4.5168150413570896 -4.666627756483088
rtoes -14.320837525024876
lowerback 11.842884925259895 -0.8684646375297785 -2.5368428515786876
upperback -1.0330510170857359 -1.3716166970696595 1.3253761777541815
thorax -8.067897740930064 -0.09765118961730335 3.368322323243308
lowerneck -18.814581723283805 -2.8653457560991464 -2.6491958931721094
upperneck 15.523482425322381 -3.5719764521943116 2.6494899773154437
head 7.603446854242794 -1.8450972316113716 0.9783951801924828
lclavicle 3.072482726151549e-16 -4.30672212082947e-16
lhumerus -36.19617634381847 -16.071646831839544 96.43417923675472
lradius 110.23666026044144
lwrist 32.61770861537695
lhand -24.926945507936317 2.0816985241882486
lfingers 7.125020000000001
lthumb 1.1253233215925174 31.64307542496235
rclavicle 3.072874365265676e-16 -4.306498568546952e-16
rhumerus -60.350342338635386 6.959301511864011 -96.76167354551083
rradius 100.01990946729987
rwrist -19.658370616402955
rhand -18.480950984816594 38.28537075145686
rfingers 7.125020000000001
rthumb 7.588334761590288 8.463296933483917
32
root 0.08619027095782389 18.379139889383875 2.3458172107233164 5.403048806489533 -1.8895551626232234 1.3624653076085071
lfemur 13.016566987084909 -3.2486812806844516 -27.274526078975857
ltibia 31.65298669858432
lfoot 13.322432195884652 -14.864902786140405
ltoes -14.676392098805463
rfemur -35.250179326414965 3.011083562873928 25.3448278238991
rtibia 65.33328777703055
rfoot -4.337363298376998 -5.491232219149411
rtoes -14.229746937178215
lowerback 11.728709664786516 -1.1545308228121591 -2.595037452639544
upperback -1.3579324478291932 -1.7281762287795444 1.6652016215641172
thorax -8.088559563855808 -0.2040390525779674 3.3924186375847163
lowerneck -18.67992176571465 -2.830257660494821 -2.7206231381579706
upperneck 15.572017323261836 -3.6078290585299353 2.56668914984001
head 7.664121036705298 -1.7906437024420674 0.9547720006531197
lclavicle 3.072482726173818e-16 -4.3067221208167584e-16
lhumerus -37.184217027290515 -17.14743251142194 97.17308567915546
lradius 112.24253002733397
lwrist 32.73116887780159
lhand -24.923115278608456 2.280148228778713
lfingers 7.125020000000001
lthumb 1.1117477175270976 31.94773696263994
rclavicle 3.0728743652611106e-16 -4.306498568549558e-16
rhumerus -61.41360974128361 6.7256096939710055 -96.24926055542132
rradius 100.42758069521452
rwrist -19.486877742614194
rhand -18.583966799139393 38.49076713290946
rfingers 7.125020000000001
rthumb 7.423295440207515 8.672246039492206
